# xmcd
#
# Track frame offsets: 
#        150
#        20650
#        40037
#        54469
#        69947
#        87202
#        102289
#
# Disc length: 1615 seconds
#
# Revision: 0
# Processed by: cddbd v1.5.2PL0 Copyright (c) Steve Scherf et al.
# Submitted via: ExactAudioCopy v0.95b3
#
DISCID=4f064d07
DTITLE=The Kinks  - Hatred ... Plus - FLAC
DYEAR=1900
DGENRE=
TTITLE0=Did Ya
TTITLE1=Hatred (Edit)
TTITLE2=Gotta Move On (live)
TTITLE3=Days (1991)
TTITLE4=Look Through Any Door way
TTITLE5=New World
TTITLE6=Shattered
EXTD=
EXTT0=
EXTT1=
EXTT2=
EXTT3=
EXTT4=
EXTT5=
EXTT6=
PLAYORDER=
